<svg width="21" height="14" viewBox="0 0 21 14" fill="none" xmlns="http://www.w3.org/2000/svg">
<path fill-rule="evenodd" clip-rule="evenodd" d="M19.944 6.89927C18.1378 3.37527 14.5622 0.990967 10.468 0.990967C6.37385 0.990967 2.79723 3.37694 0.992104 6.8996C0.837593 7.20524 0.837593 7.56613 0.992104 7.87177C2.79823 11.3958 6.37385 13.7801 10.468 13.7801C14.5622 13.7801 18.1388 11.3941 19.944 7.87144C20.0985 7.5658 20.0985 7.20491 19.944 6.89927ZM10.468 12.1814C7.81932 12.1814 5.67212 10.0342 5.67212 7.38552C5.67212 4.7368 7.81932 2.5896 10.468 2.5896C13.1167 2.5896 15.264 4.7368 15.264 7.38552C15.2646 8.65766 14.7595 9.87788 13.8599 10.7774C12.9604 11.677 11.7402 12.1821 10.468 12.1814ZM9.62509 4.31447C9.89912 4.23469 10.1827 4.19223 10.468 4.18823C11.8363 4.18502 13.0542 5.05472 13.4952 6.34993C13.9363 7.64513 13.5022 9.07736 12.4163 9.90981C11.3305 10.7423 9.83466 10.7895 8.69841 10.0273C7.56217 9.26501 7.03857 7.86303 7.39698 6.54257C8.03132 7.00935 8.91149 6.94276 9.46839 6.38587C10.0253 5.82898 10.0919 4.9488 9.62509 4.31447Z" fill="#1A203D"/>
</svg>
